<svg xmlns="http://www.w3.org/2000/svg" viewBox="0 0 640 330" role="img" aria-labelledby="title desc">
  <title id="title">Studio shelf module</title>
  <desc id="desc">A modern studio styled display room with rail lighting and adjustable shelves.</desc>
  <defs>
    <linearGradient id="wall" x1="0" x2="1" y1="0" y2="1">
      <stop offset="0" stop-color="#ede8de"/>
      <stop offset="1" stop-color="#d5d0c9"/>
    </linearGradient>
    <linearGradient id="glass" x1="0" x2="1" y1="0" y2="1">
      <stop offset="0" stop-color="#ffffff" stop-opacity=".42"/>
      <stop offset="1" stop-color="#ffffff" stop-opacity=".04"/>
    </linearGradient>
  </defs>
  <rect width="640" height="330" rx="24" fill="#242a30"/>
  <rect x="18" y="18" width="604" height="294" rx="18" fill="url(#wall)"/>
  <rect x="54" y="54" width="120" height="210" rx="12" fill="#333840" opacity=".88"/>
  <g stroke="#fff3c5" stroke-width="4" stroke-linecap="round" opacity=".74">
    <path d="M75 78h78M75 126h78M75 174h78M75 222h78"/>
  </g>
  <rect x="218" y="76" width="340" height="12" rx="6" fill="#252b30" opacity=".86"/>
  <circle cx="276" cy="82" r="13" fill="#fff0ba" opacity=".74"/>
  <circle cx="420" cy="82" r="13" fill="#fff0ba" opacity=".74"/>
  <rect x="224" y="126" width="298" height="10" rx="5" fill="#796b5d"/>
  <rect x="238" y="200" width="284" height="10" rx="5" fill="#796b5d"/>
  <rect x="248" y="242" width="244" height="22" rx="11" fill="#4b525a" opacity=".86"/>
  <g fill="#2d3136">
    <path d="M250 107c0-15 22-15 22 0v18h-22z"/>
    <circle cx="261" cy="96" r="10"/>
    <path d="M314 105c0-18 28-18 28 0v20h-28z"/>
    <circle cx="328" cy="92" r="12"/>
    <path d="M462 106c0-16 24-16 24 0v19h-24z"/>
    <circle cx="474" cy="94" r="11"/>
    <path d="M292 182c0-17 26-17 26 0v18h-26z"/>
    <circle cx="305" cy="170" r="11"/>
    <path d="M410 181c0-19 30-19 30 0v19h-30z"/>
    <circle cx="425" cy="167" r="13"/>
  </g>
  <g fill="#a64235" opacity=".74">
    <rect x="352" y="162" width="34" height="38" rx="8"/>
    <rect x="528" y="204" width="38" height="58" rx="10"/>
  </g>
  <path d="M198 102v178" stroke="#252b30" stroke-width="6" stroke-linecap="round" opacity=".42"/>
  <path d="M582 74v206" stroke="#252b30" stroke-width="6" stroke-linecap="round" opacity=".42"/>
  <rect x="18" y="18" width="604" height="294" rx="18" fill="url(#glass)"/>
  <path d="M76 26 24 240M202 24 92 310M586 36 516 306" stroke="#ffffff" stroke-width="10" stroke-linecap="round" opacity=".14"/>
  <rect x="18" y="18" width="604" height="294" rx="18" fill="none" stroke="#ffffff" stroke-opacity=".36"/>
</svg>
