<svg xmlns="http://www.w3.org/2000/svg" viewBox="0 0 640 330" role="img" aria-labelledby="title desc">
  <title id="title">Gallery floor module</title>
  <desc id="desc">A modern display room with shelves, soft lighting, and figurines.</desc>
  <defs>
    <linearGradient id="wall" x1="0" x2="1" y1="0" y2="1">
      <stop offset="0" stop-color="#f4f0e8"/>
      <stop offset="1" stop-color="#e5ded2"/>
    </linearGradient>
    <linearGradient id="glass" x1="0" x2="1" y1="0" y2="1">
      <stop offset="0" stop-color="#ffffff" stop-opacity=".44"/>
      <stop offset="1" stop-color="#ffffff" stop-opacity=".05"/>
    </linearGradient>
  </defs>
  <rect width="640" height="330" rx="24" fill="#242a30"/>
  <rect x="18" y="18" width="604" height="294" rx="18" fill="url(#wall)"/>
  <rect x="42" y="48" width="170" height="196" rx="10" fill="#cbd5de" opacity=".58"/>
  <path d="M74 76h106M74 110h106M74 144h106M74 178h106" stroke="#7b8790" stroke-opacity=".32" stroke-width="5"/>
  <rect x="252" y="58" width="286" height="12" rx="6" fill="#22272c" opacity=".82"/>
  <rect x="276" y="100" width="226" height="9" rx="5" fill="#78695d"/>
  <rect x="262" y="164" width="254" height="9" rx="5" fill="#78695d"/>
  <rect x="274" y="230" width="232" height="9" rx="5" fill="#78695d"/>
  <g fill="#2d3136">
    <path d="M304 84c0-15 22-15 22 0v13h-22z"/>
    <circle cx="315" cy="74" r="10"/>
    <path d="M386 78c0-18 28-18 28 0v19h-28z"/>
    <circle cx="400" cy="65" r="12"/>
    <path d="M458 87c0-14 20-14 20 0v10h-20z"/>
    <circle cx="468" cy="78" r="8"/>
    <path d="M314 146c0-20 30-20 30 0v18h-30z"/>
    <circle cx="329" cy="132" r="13"/>
    <path d="M420 146c0-19 30-19 30 0v18h-30z"/>
    <circle cx="435" cy="132" r="13"/>
    <path d="M350 212c0-18 28-18 28 0v18h-28z"/>
    <circle cx="364" cy="199" r="12"/>
    <path d="M454 213c0-17 26-17 26 0v17h-26z"/>
    <circle cx="467" cy="201" r="11"/>
  </g>
  <g fill="#a64235" opacity=".78">
    <rect x="286" y="196" width="34" height="34" rx="8"/>
    <rect x="508" y="129" width="26" height="35" rx="6"/>
  </g>
  <path d="M245 88h306" stroke="#fff3c5" stroke-width="5" stroke-linecap="round" opacity=".72"/>
  <path d="M245 88h306" stroke="#fff" stroke-width="1" stroke-linecap="round" opacity=".85"/>
  <rect x="18" y="18" width="604" height="294" rx="18" fill="url(#glass)"/>
  <path d="M76 26 24 240M202 24 92 310M586 36 516 306" stroke="#ffffff" stroke-width="10" stroke-linecap="round" opacity=".14"/>
  <rect x="18" y="18" width="604" height="294" rx="18" fill="none" stroke="#ffffff" stroke-opacity=".36"/>
</svg>
